<svg width="92" height="51" viewBox="0 0 92 51" fill="none" xmlns="http://www.w3.org/2000/svg">
<path d="M3.75677 27.6209C5.39424 31.3765 11.0604 52.4833 16.5394 42.7833C18.3012 39.6643 20.0491 35.573 19.6971 31.917C19.2821 27.6067 24.8259 36.1707 25.1299 36.555C31.1798 44.2035 33.6472 47.5548 34.3321 35.811C34.707 29.3824 35.0138 20.8305 36.8332 14.6095" stroke="#161616" stroke-width="6" stroke-linecap="round"/>
<path d="M47.7081 37.5127C48.5137 29.3516 51.783 21.5469 52.32 13.3592C52.3408 13.0417 52.2585 9.82216 53.161 10.4966C54.7125 11.6563 55.9838 13.3824 57.1394 14.9008C59.3073 17.7494 61.6838 20.5024 63.6926 23.4645C65.3172 25.8601 66.4289 28.8826 67.2885 31.6274" stroke="#161616" stroke-width="6" stroke-linecap="round"/>
<path d="M57.5029 30.2593L60.8667 29.2059" stroke="#161616" stroke-width="6" stroke-linecap="round"/>
<path d="M84.4594 3.10357C85.0099 5.18062 84.5711 7.41279 84.3752 9.51863C84.1872 11.5398 84.0259 13.5539 83.9341 15.5803" stroke="#161616" stroke-width="6" stroke-linecap="round"/>
<path d="M84.1124 25.4744C84.5193 25.9963 84.8561 26.4994 83.948 26.5223C83.7279 26.5278 83.6088 25.7967 83.5619 25.6468" stroke="#161616" stroke-width="6" stroke-linecap="round"/>
</svg>
